<svg width="1400" height="900" viewBox="0 0 1400 900" fill="none" xmlns="http://www.w3.org/2000/svg">
  <rect width="1400" height="900" rx="28" fill="#0D0F1A"/>
  <rect x="36" y="32" width="1328" height="836" rx="22" fill="#141726" stroke="#2B314E"/>
  <rect x="60" y="60" width="1280" height="64" rx="14" fill="#1E2236"/>
  <rect x="84" y="82" width="270" height="20" rx="10" fill="#2D6BE4"/>
  <rect x="1170" y="76" width="146" height="32" rx="16" fill="#2D6BE4"/>

  <rect x="60" y="146" width="410" height="218" rx="14" fill="#1E2236" stroke="#343B5C"/>
  <rect x="482" y="146" width="410" height="218" rx="14" fill="#1E2236" stroke="#343B5C"/>
  <rect x="904" y="146" width="436" height="218" rx="14" fill="#1E2236" stroke="#343B5C"/>

  <rect x="82" y="172" width="150" height="14" rx="7" fill="#8B90B8"/>
  <rect x="82" y="204" width="352" height="18" rx="9" fill="#F0F2FF"/>
  <rect x="82" y="230" width="296" height="14" rx="7" fill="#8B90B8"/>
  <rect x="82" y="260" width="128" height="12" rx="6" fill="#00E5C3"/>

  <rect x="504" y="172" width="182" height="14" rx="7" fill="#8B90B8"/>
  <rect x="504" y="204" width="330" height="18" rx="9" fill="#F0F2FF"/>
  <rect x="504" y="230" width="292" height="14" rx="7" fill="#8B90B8"/>
  <rect x="504" y="260" width="112" height="12" rx="6" fill="#F5A623"/>

  <rect x="926" y="172" width="128" height="14" rx="7" fill="#8B90B8"/>
  <rect x="926" y="204" width="360" height="18" rx="9" fill="#F0F2FF"/>
  <rect x="926" y="230" width="320" height="14" rx="7" fill="#8B90B8"/>
  <rect x="926" y="260" width="136" height="12" rx="6" fill="#FF4D6D"/>

  <rect x="60" y="382" width="630" height="486" rx="14" fill="#1E2236" stroke="#343B5C"/>
  <rect x="706" y="382" width="634" height="486" rx="14" fill="#1E2236" stroke="#343B5C"/>

  <rect x="84" y="406" width="190" height="14" rx="7" fill="#8B90B8"/>
  <rect x="730" y="406" width="164" height="14" rx="7" fill="#8B90B8"/>

  <rect x="84" y="438" width="582" height="74" rx="12" fill="#252A42"/>
  <rect x="84" y="524" width="582" height="74" rx="12" fill="#252A42"/>
  <rect x="84" y="610" width="582" height="74" rx="12" fill="#252A42"/>
  <rect x="84" y="696" width="582" height="74" rx="12" fill="#252A42"/>

  <rect x="730" y="438" width="602" height="188" rx="12" fill="#252A42"/>
  <rect x="730" y="640" width="602" height="208" rx="12" fill="#252A42"/>

  <rect x="760" y="468" width="284" height="14" rx="7" fill="#F0F2FF"/>
  <rect x="760" y="494" width="250" height="12" rx="6" fill="#8B90B8"/>
  <rect x="1060" y="468" width="122" height="24" rx="12" fill="#2D6BE4"/>

  <rect x="760" y="670" width="206" height="14" rx="7" fill="#F0F2FF"/>
  <rect x="760" y="696" width="544" height="12" rx="6" fill="#8B90B8"/>
  <rect x="760" y="722" width="482" height="12" rx="6" fill="#8B90B8"/>

  <text x="70" y="846" fill="#00E5C3" font-family="DM Sans, Arial, sans-serif" font-size="24" font-weight="700">FlowDrop Command Center</text>
</svg>
