<svg width="1400" height="900" viewBox="0 0 1400 900" fill="none" xmlns="http://www.w3.org/2000/svg">
  <rect width="1400" height="900" rx="28" fill="#0D0F1A"/>
  <rect x="36" y="32" width="1328" height="836" rx="22" fill="#141726" stroke="#2B314E"/>

  <rect x="60" y="60" width="1280" height="88" rx="14" fill="#1E2236"/>
  <rect x="84" y="88" width="232" height="20" rx="10" fill="#F0F2FF"/>
  <rect x="328" y="92" width="322" height="12" rx="6" fill="#8B90B8"/>
  <rect x="1170" y="80" width="146" height="36" rx="18" fill="#2D6BE4"/>

  <rect x="60" y="170" width="860" height="698" rx="14" fill="#1E2236" stroke="#343B5C"/>
  <rect x="936" y="170" width="404" height="698" rx="14" fill="#1E2236" stroke="#343B5C"/>

  <rect x="84" y="198" width="190" height="14" rx="7" fill="#8B90B8"/>
  <rect x="84" y="228" width="812" height="128" rx="12" fill="#252A42"/>
  <rect x="84" y="372" width="812" height="128" rx="12" fill="#252A42"/>
  <rect x="84" y="516" width="812" height="164" rx="12" fill="#252A42"/>
  <rect x="84" y="696" width="812" height="146" rx="12" fill="#252A42"/>

  <rect x="962" y="198" width="170" height="14" rx="7" fill="#8B90B8"/>
  <rect x="962" y="228" width="352" height="170" rx="12" fill="#252A42"/>
  <rect x="962" y="414" width="352" height="170" rx="12" fill="#252A42"/>
  <rect x="962" y="600" width="352" height="242" rx="12" fill="#252A42"/>

  <rect x="1020" y="258" width="220" height="10" rx="5" fill="#8B90B8"/>
  <rect x="1020" y="282" width="250" height="10" rx="5" fill="#8B90B8"/>
  <rect x="1020" y="306" width="190" height="10" rx="5" fill="#8B90B8"/>

  <rect x="1016" y="450" width="262" height="36" rx="18" fill="#00C48C"/>
  <rect x="1016" y="500" width="262" height="36" rx="18" fill="#FF4D6D"/>

  <text x="70" y="846" fill="#00E5C3" font-family="DM Sans, Arial, sans-serif" font-size="24" font-weight="700">FlowDrop Settings Center</text>
</svg>
