<svg width="1400" height="900" viewBox="0 0 1400 900" fill="none" xmlns="http://www.w3.org/2000/svg">
  <rect width="1400" height="900" rx="28" fill="#0D0F1A"/>
  <rect x="36" y="32" width="1328" height="836" rx="22" fill="#141726" stroke="#2B314E"/>

  <rect x="60" y="60" width="1280" height="78" rx="14" fill="#1E2236"/>
  <rect x="84" y="84" width="190" height="22" rx="11" fill="#F0F2FF"/>
  <rect x="282" y="88" width="220" height="14" rx="7" fill="#8B90B8"/>

  <rect x="60" y="158" width="1280" height="130" rx="14" fill="#1E2236" stroke="#343B5C"/>
  <rect x="86" y="184" width="240" height="78" rx="10" fill="#252A42"/>
  <rect x="338" y="184" width="240" height="78" rx="10" fill="#252A42"/>
  <rect x="590" y="184" width="240" height="78" rx="10" fill="#252A42"/>
  <rect x="842" y="184" width="240" height="78" rx="10" fill="#252A42"/>
  <rect x="1094" y="184" width="220" height="78" rx="10" fill="#252A42"/>

  <rect x="60" y="306" width="868" height="562" rx="14" fill="#1E2236" stroke="#343B5C"/>
  <rect x="946" y="306" width="394" height="274" rx="14" fill="#1E2236" stroke="#343B5C"/>
  <rect x="946" y="594" width="394" height="274" rx="14" fill="#1E2236" stroke="#343B5C"/>

  <rect x="84" y="334" width="192" height="14" rx="7" fill="#8B90B8"/>
  <rect x="84" y="366" width="394" height="198" rx="12" fill="#252A42"/>
  <rect x="490" y="366" width="414" height="198" rx="12" fill="#252A42"/>
  <rect x="84" y="578" width="394" height="264" rx="12" fill="#252A42"/>
  <rect x="490" y="578" width="414" height="264" rx="12" fill="#252A42"/>

  <rect x="972" y="334" width="178" height="14" rx="7" fill="#8B90B8"/>
  <rect x="972" y="366" width="342" height="88" rx="10" fill="#252A42"/>
  <rect x="972" y="466" width="342" height="88" rx="10" fill="#252A42"/>

  <rect x="972" y="622" width="168" height="14" rx="7" fill="#8B90B8"/>
  <rect x="972" y="654" width="342" height="188" rx="10" fill="#252A42"/>

  <circle cx="136" cy="414" r="18" fill="#2D6BE4"/>
  <circle cx="136" cy="460" r="18" fill="#00E5C3"/>
  <circle cx="136" cy="506" r="18" fill="#F5A623"/>
  <circle cx="136" cy="552" r="18" fill="#FF4D6D"/>

  <text x="70" y="846" fill="#00E5C3" font-family="DM Sans, Arial, sans-serif" font-size="24" font-weight="700">FlowDrop Team Accountability</text>
</svg>
